<svg width="36" height="37" viewBox="0 0 36 37" fill="none" xmlns="http://www.w3.org/2000/svg">
<path d="M18 0.5C8.0748 0.5 0 8.5748 0 18.5V25.9574C0 27.8006 1.6146 29.3 3.6 29.3H5.4C5.87739 29.3 6.33523 29.1104 6.67279 28.7728C7.01036 28.4352 7.2 27.9774 7.2 27.5V18.2426C7.2 17.7652 7.01036 17.3074 6.67279 16.9698C6.33523 16.6322 5.87739 16.4426 5.4 16.4426H3.7656C4.7664 9.4766 10.7604 4.1 18 4.1C25.2396 4.1 31.2336 9.4766 32.2344 16.4426H30.6C30.1226 16.4426 29.6648 16.6322 29.3272 16.9698C28.9896 17.3074 28.8 17.7652 28.8 18.2426V29.3C28.8 31.2854 27.1854 32.9 25.2 32.9H21.6V31.1H14.4V36.5H25.2C29.1708 36.5 32.4 33.2708 32.4 29.3C34.3854 29.3 36 27.8006 36 25.9574V18.5C36 8.5748 27.9252 0.5 18 0.5Z" fill="#D3D3D3"/>
</svg>
