<svg width="36" height="45" viewBox="0 0 36 45" fill="none" xmlns="http://www.w3.org/2000/svg">
<path d="M23 31.7857H13C11.6739 31.7857 10.4021 32.305 9.46447 33.2293C8.52678 34.1535 8 35.4071 8 36.7143V40H11.3333V36.7143C11.3333 36.2786 11.5089 35.8607 11.8215 35.5526C12.134 35.2445 12.558 35.0714 13 35.0714H23C23.442 35.0714 23.866 35.2445 24.1785 35.5526C24.4911 35.8607 24.6667 36.2786 24.6667 36.7143V40H28V36.7143C28 35.4071 27.4732 34.1535 26.5355 33.2293C25.5979 32.305 24.3261 31.7857 23 31.7857ZM18 30.1429C19.3185 30.1429 20.6075 29.7575 21.7038 29.0354C22.8001 28.3133 23.6546 27.287 24.1592 26.0862C24.6638 24.8854 24.7958 23.5641 24.5386 22.2894C24.2813 21.0147 23.6464 19.8438 22.714 18.9247C21.7817 18.0057 20.5938 17.3798 19.3006 17.1263C18.0074 16.8727 16.667 17.0028 15.4488 17.5002C14.2306 17.9976 13.1894 18.8399 12.4569 19.9205C11.7243 21.0012 11.3333 22.2717 11.3333 23.5714C11.3333 25.3143 12.0357 26.9858 13.286 28.2181C14.5362 29.4505 16.2319 30.1429 18 30.1429ZM18 20.2857C18.6593 20.2857 19.3037 20.4784 19.8519 20.8395C20.4001 21.2005 20.8273 21.7137 21.0796 22.314C21.3319 22.9144 21.3979 23.5751 21.2693 24.2124C21.1407 24.8498 20.8232 25.4353 20.357 25.8948C19.8908 26.3543 19.2969 26.6672 18.6503 26.794C18.0037 26.9208 17.3335 26.8557 16.7244 26.607C16.1153 26.3583 15.5947 25.9372 15.2284 25.3969C14.8622 24.8565 14.6667 24.2213 14.6667 23.5714C14.6667 22.7 15.0179 21.8643 15.643 21.2481C16.2681 20.6319 17.1159 20.2857 18 20.2857Z" fill="#D3D3D3"/>
<path d="M32.7273 4.82143H27.8182V3.21429C27.8182 2.3618 27.4734 1.54424 26.8596 0.941442C26.2459 0.338647 25.4134 0 24.5455 0H11.4545C10.5866 0 9.75413 0.338647 9.14038 0.941442C8.52662 1.54424 8.18182 2.3618 8.18182 3.21429V4.82143H3.27273C2.40475 4.82143 1.57231 5.16008 0.958559 5.76287C0.344804 6.36567 0 7.18323 0 8.03571V41.7857C0 42.6382 0.344804 43.4558 0.958559 44.0586C1.57231 44.6614 2.40475 45 3.27273 45H32.7273C33.5953 45 34.4277 44.6614 35.0414 44.0586C35.6552 43.4558 36 42.6382 36 41.7857V8.03571C36 7.18323 35.6552 6.36567 35.0414 5.76287C34.4277 5.16008 33.5953 4.82143 32.7273 4.82143ZM11.4545 3.21429H24.5455V9.64286H11.4545V3.21429ZM32.7273 41.7857H3.27273V8.03571H8.18182V12.8571H27.8182V8.03571H32.7273V41.7857Z" fill="#D3D3D3"/>
</svg>
