<svg width="36" height="35" viewBox="0 0 36 35" fill="none" xmlns="http://www.w3.org/2000/svg">
<path d="M25.4038 34.5L24.8604 31.8158C24.4981 31.6667 24.1588 31.5104 23.8424 31.3469C23.526 31.1835 23.2012 30.9819 22.8679 30.7421L20.2415 31.5474L18.4302 28.5053L20.5132 26.7158C20.4528 26.3579 20.4226 25.9702 20.4226 25.5526C20.4226 25.1351 20.4528 24.7474 20.5132 24.3895L18.4302 22.6L20.2415 19.5579L22.8679 20.3632C23.2 20.1246 23.5248 19.9235 23.8424 19.7601C24.16 19.5967 24.4993 19.4398 24.8604 19.2895L25.4038 16.6053H29.0264L29.5698 19.2895C29.9321 19.4386 30.272 19.5955 30.5896 19.7601C30.9072 19.9247 31.2314 20.1258 31.5623 20.3632L34.1887 19.5579L36 22.6L33.917 24.3895C33.9774 24.7474 34.0075 25.1351 34.0075 25.5526C34.0075 25.9702 33.9774 26.3579 33.917 26.7158L36 28.5053L34.1887 31.5474L31.5623 30.7421C31.2302 30.9807 30.906 31.1823 30.5896 31.3469C30.2732 31.5116 29.9333 31.6679 29.5698 31.8158L29.0264 34.5H25.4038ZM3.62264 32.7105C2.62642 32.7105 1.77389 32.3604 1.06506 31.6601C0.356226 30.9598 0.00120755 30.117 0 29.1316V4.07895C0 3.09474 0.355019 2.25249 1.06506 1.55221C1.77509 0.85193 2.62762 0.501193 3.62264 0.5H28.9811C29.9774 0.5 30.8305 0.850737 31.5405 1.55221C32.2506 2.25368 32.605 3.09593 32.6038 4.07895V14.1895C32.0302 13.9211 31.4415 13.7045 30.8377 13.5399C30.234 13.3753 29.6151 13.2494 28.9811 13.1623V4.07895H3.62264V20.1842H11.2302C11.5019 20.9895 11.9547 21.6904 12.5887 22.2868C13.2226 22.8833 13.9321 23.3009 14.717 23.5395C14.4453 25.15 14.4833 26.7456 14.8311 28.3263C15.1789 29.907 15.8352 31.3684 16.8 32.7105H3.62264ZM27.2151 29.1316C28.2113 29.1316 29.0645 28.7814 29.7745 28.0812C30.4845 27.3809 30.8389 26.538 30.8377 25.5526C30.8365 24.5672 30.4821 23.725 29.7745 23.0259C29.0669 22.3268 28.2137 21.9761 27.2151 21.9737C26.2165 21.9713 25.3639 22.322 24.6575 23.0259C23.9511 23.7298 23.5961 24.572 23.5925 25.5526C23.5888 26.5333 23.9439 27.3761 24.6575 28.0812C25.3712 28.7862 26.2237 29.1364 27.2151 29.1316Z" fill="#D3D3D3"/>
</svg>
