<svg width="580" height="698" viewBox="0 0 580 698" fill="none" xmlns="http://www.w3.org/2000/svg">
<path d="M722.414 355.539C722.389 545.179 540.26 697.5 350.508 697.5C255.643 697.5 189.303 664.798 146.662 608.443C104.003 552.063 85.0082 471.939 85.0082 377C85.0082 329.424 73.1091 282.054 58.2507 237.784C50.821 215.648 42.6487 194.279 34.8509 174.045C34.3473 172.738 33.8454 171.436 33.3452 170.139C26.0992 151.347 19.2454 133.571 13.69 117.095C7.75078 99.4811 3.30411 83.376 1.4495 69.1266C-0.405428 54.8748 0.338725 42.5232 4.73682 32.3885C13.505 12.1836 36.953 0.5 84.4137 0.5C179.31 0.5 330.883 38.8471 462.727 102.45C528.643 134.249 589.602 172.349 636.066 215.102C682.524 257.849 714.452 305.209 722.414 355.539Z" stroke="#3221C5"/>
</svg>
